<svg width="92" height="92" viewBox="0 0 92 92" fill="none" xmlns="http://www.w3.org/2000/svg">
<path d="M22.8906 66.8405L26.1753 54.6381C23.5263 49.8847 22.6847 44.3378 23.8049 39.0154C24.9251 33.693 27.932 28.952 32.2738 25.6624C36.6156 22.3729 42.0011 20.7554 47.4421 21.1068C52.883 21.4582 58.0144 23.755 61.8946 27.5756C65.7749 31.3962 68.1437 36.4844 68.5664 41.9065C68.989 47.3286 67.4373 52.7208 64.1958 57.0938C60.9543 61.4668 56.2405 64.5271 50.9195 65.7133C45.5984 66.8994 40.027 66.1318 35.2276 63.5513L22.8906 66.8405ZM35.8224 58.985L36.5854 59.4365C40.0617 61.4918 44.122 62.3423 48.1336 61.8555C52.1451 61.3687 55.8825 59.5719 58.7634 56.7452C61.6443 53.9185 63.5068 50.2206 64.0607 46.2279C64.6146 42.2351 63.8288 38.1717 61.8257 34.6709C59.8226 31.1701 56.7148 28.4285 52.9865 26.8734C49.2582 25.3184 45.119 25.0372 41.2137 26.0736C37.3085 27.11 33.8567 29.4059 31.3962 32.6035C28.9357 35.801 27.6047 39.7206 27.6107 43.7514C27.6075 47.0937 28.5341 50.3712 30.2876 53.2192L30.7661 54.0061L28.9298 60.8167L35.8224 58.985Z" fill="#00D95F"/>
<path fill-rule="evenodd" clip-rule="evenodd" d="M54.3404 46.8847C53.8931 46.5249 53.3694 46.2716 52.8091 46.1442C52.2489 46.0168 51.6669 46.0186 51.1074 46.1495C50.2669 46.4977 49.7237 47.8134 49.1806 48.4713C49.0661 48.629 48.8978 48.7396 48.7073 48.7823C48.5168 48.8251 48.3173 48.797 48.1461 48.7034C45.0687 47.5012 42.4893 45.2965 40.8267 42.4475C40.6848 42.2697 40.6177 42.044 40.6394 41.8178C40.6612 41.5916 40.77 41.3827 40.943 41.235C41.5488 40.6368 41.9936 39.8959 42.2362 39.0809C42.2901 38.1818 42.0836 37.2863 41.6414 36.5011C41.2995 35.4002 40.6488 34.42 39.7663 33.6762C39.3111 33.472 38.8063 33.4036 38.313 33.4791C37.8197 33.5546 37.3588 33.7709 36.9859 34.1019C36.3386 34.6589 35.8249 35.3537 35.4825 36.135C35.14 36.9163 34.9777 37.7643 35.0074 38.6165C35.0093 39.0951 35.0702 39.5716 35.1884 40.0354C35.4887 41.1497 35.9505 42.2144 36.5592 43.1956C36.9983 43.9473 37.4775 44.6749 37.9946 45.3755C39.6751 47.6767 41.7876 49.6305 44.2148 51.1284C45.4328 51.8897 46.7345 52.5086 48.0943 52.973C49.5069 53.6117 51.0665 53.8568 52.6075 53.6824C53.4855 53.5499 54.3174 53.2041 55.03 52.6755C55.7426 52.1469 56.314 51.4518 56.694 50.6512C56.9172 50.1675 56.985 49.6269 56.8879 49.1033C56.6552 48.0327 55.2197 47.4007 54.3404 46.8847Z" fill="#00D95F"/>
</svg>
